<svg data-v-423bf9ae="" xmlns="http://www.w3.org/2000/svg" viewBox="0 0 559 107" class="iconLeftSlogan"><!----><!----><!----><g data-v-423bf9ae="" id="a42a1a38-c6b0-4506-bded-c2c1b3ab43af" fill="white" transform="matrix(5.882352501188353,0,0,5.882352501188353,102.25640062202174,-41.99999559626889)"><path d="M5.33 11.79L5.33 11.79L5.33 11.94L5.33 11.94Q6.81 12.07 7.61 12.64L7.61 12.64L7.61 12.64Q8.42 13.21 8.42 14.19L8.42 14.19L8.42 14.19Q8.42 14.85 8.18 15.36L8.18 15.36L8.18 15.36Q7.94 15.87 7.55 16.20L7.55 16.20L7.55 16.20Q7.16 16.52 6.61 16.73L6.61 16.73L6.61 16.73Q6.06 16.95 5.49 17.03L5.49 17.03L5.49 17.03Q4.92 17.12 4.27 17.12L4.27 17.12L0.85 17.12L0.85 16.89L0.85 16.89Q1.05 16.77 1.15 16.67L1.15 16.67L1.15 16.67Q1.26 16.56 1.30 16.43L1.30 16.43L1.30 16.43Q1.35 16.29 1.35 16.20L1.35 16.20L1.35 16.20Q1.36 16.12 1.36 15.91L1.36 15.91L1.36 9.17L1.36 9.17Q1.36 9.07 1.37 8.90L1.37 8.90L1.37 8.90Q1.37 8.74 1.37 8.66L1.37 8.66L1.37 8.66Q1.37 8.59 1.35 8.47L1.35 8.47L1.35 8.47Q1.33 8.34 1.29 8.28L1.29 8.28L1.29 8.28Q1.24 8.22 1.14 8.12L1.14 8.12L1.14 8.12Q1.05 8.03 0.90 7.95L0.90 7.95L0.90 7.95Q0.75 7.88 0.52 7.80L0.52 7.80L0.52 7.80Q0.30 7.72 0 7.63L0 7.63L0 7.33L0.08 7.25L4.40 7.25L4.40 7.25Q8.08 7.25 8.08 9.39L8.08 9.39L8.08 9.39Q8.08 9.90 7.84 10.32L7.84 10.32L7.84 10.32Q7.59 10.74 7.18 11.02L7.18 11.02L7.18 11.02Q6.77 11.31 6.31 11.49L6.31 11.49L6.31 11.49Q5.85 11.68 5.33 11.79ZM3.11 12.23L3.11 15.45L3.11 15.45Q3.11 15.66 3.11 15.73L3.11 15.73L3.11 15.73Q3.11 15.80 3.12 15.96L3.12 15.96L3.12 15.96Q3.13 16.11 3.15 16.17L3.15 16.17L3.15 16.17Q3.17 16.22 3.21 16.31L3.21 16.31L3.21 16.31Q3.25 16.41 3.32 16.44L3.32 16.44L3.32 16.44Q3.38 16.47 3.47 16.50L3.47 16.50L3.47 16.50Q3.56 16.53 3.68 16.53L3.68 16.53L3.68 16.53Q4.87 16.53 5.63 15.89L5.63 15.89L5.63 15.89Q6.38 15.24 6.38 14.16L6.38 14.16L6.38 14.16Q6.38 13.45 5.74 12.83L5.74 12.83L5.74 12.83Q5.48 12.59 4.98 12.45L4.98 12.45L4.98 12.45Q4.48 12.31 4.09 12.28L4.09 12.28L4.09 12.28Q3.71 12.25 3.11 12.23L3.11 12.23ZM3.11 8.63L3.11 11.70L3.11 11.70Q4.61 11.70 5.39 11.13L5.39 11.13L5.39 11.13Q6.17 10.55 6.17 9.50L6.17 9.50L6.17 9.50Q6.17 7.83 3.86 7.83L3.86 7.83L3.86 7.83Q3.60 7.83 3.29 7.91L3.29 7.91L3.29 7.91Q3.17 7.94 3.14 8.08L3.14 8.08L3.14 8.08Q3.11 8.21 3.11 8.52L3.11 8.52L3.11 8.52Q3.11 8.56 3.11 8.58L3.11 8.58L3.11 8.58Q3.11 8.61 3.11 8.63L3.11 8.63ZM15.03 10.72L15.87 10.19L16.07 10.32L16.07 10.32Q15.85 12.65 15.85 14.14L15.85 14.14L15.85 14.14Q15.85 14.72 15.85 14.98L15.85 14.98L15.85 14.98Q15.86 15.24 15.90 15.55L15.90 15.55L15.90 15.55Q15.94 15.85 16.04 15.96L16.04 15.96L16.04 15.96Q16.14 16.06 16.31 16.06L16.31 16.06L16.31 16.06Q16.64 16.06 17.29 15.48L17.29 15.48L17.55 15.77L17.55 15.77Q17.31 16.06 17.08 16.29L17.08 16.29L17.08 16.29Q16.86 16.52 16.56 16.76L16.56 16.76L16.56 16.76Q16.26 17.00 15.92 17.13L15.92 17.13L15.92 17.13Q15.58 17.26 15.24 17.26L15.24 17.26L15.24 17.26Q14.50 17.26 14.38 16.33L14.38 16.33L14.20 16.26L14.20 16.26Q12.82 17.30 11.59 17.30L11.59 17.30L11.59 17.30Q11.05 17.30 10.65 17.02L10.65 17.02L10.65 17.02Q10.25 16.74 10.03 16.29L10.03 16.29L10.03 16.29Q9.81 15.84 9.71 15.36L9.71 15.36L9.71 15.36Q9.60 14.89 9.60 14.42L9.60 14.42L9.60 14.42Q9.60 12.29 10.46 11.20L10.46 11.20L10.46 11.20Q11.32 10.12 12.99 10.12L12.99 10.12L12.99 10.12Q14.05 10.12 15.03 10.72L15.03 10.72ZM14.40 12.46L14.40 12.46L14.40 12.46Q14.40 10.65 13.12 10.65L13.12 10.65L13.12 10.65Q12.73 10.65 12.41 10.80L12.41 10.80L12.41 10.80Q12.10 10.94 11.90 11.20L11.90 11.20L11.90 11.20Q11.70 11.46 11.55 11.78L11.55 11.78L11.55 11.78Q11.40 12.09 11.33 12.47L11.33 12.47L11.33 12.47Q11.25 12.85 11.22 13.19L11.22 13.19L11.22 13.19Q11.18 13.52 11.18 13.87L11.18 13.87L11.18 13.87Q11.18 14.27 11.25 14.65L11.25 14.65L11.25 14.65Q11.32 15.03 11.47 15.39L11.47 15.39L11.47 15.39Q11.63 15.76 11.93 15.99L11.93 15.99L11.93 15.99Q12.24 16.21 12.65 16.21L12.65 16.21L12.65 16.21Q13.48 16.21 14.29 15.45L14.29 15.45L14.29 15.45Q14.40 14.63 14.40 12.46ZM19.61 7.33L19.80 7.50L19.68 13.86L19.68 13.86Q19.68 13.95 19.67 14.15L19.67 14.15L19.67 14.15Q19.67 14.35 19.67 14.46L19.67 14.46L19.67 14.46Q19.67 14.79 19.68 15.00L19.68 15.00L19.68 15.00Q19.69 15.22 19.72 15.42L19.72 15.42L19.72 15.42Q19.75 15.63 19.81 15.74L19.81 15.74L19.81 15.74Q19.87 15.86 19.96 15.93L19.96 15.93L19.96 15.93Q20.06 16.00 20.20 16.00L20.20 16.00L20.20 16.00Q20.67 16.00 21.24 15.37L21.24 15.37L21.40 15.37L21.63 15.59L21.63 15.59Q20.43 17.19 19.35 17.19L19.35 17.19L19.35 17.19Q19.15 17.19 18.99 17.15L18.99 17.15L18.99 17.15Q18.83 17.11 18.72 17.06L18.72 17.06L18.72 17.06Q18.60 17.00 18.51 16.90L18.51 16.90L18.51 16.90Q18.42 16.80 18.36 16.71L18.36 16.71L18.36 16.71Q18.30 16.63 18.26 16.47L18.26 16.47L18.26 16.47Q18.22 16.32 18.20 16.21L18.20 16.21L18.20 16.21Q18.18 16.11 18.17 15.93L18.17 15.93L18.17 15.93Q18.16 15.75 18.16 15.65L18.16 15.65L18.16 15.65Q18.16 15.54 18.16 15.35L18.16 15.35L18.16 15.35Q18.16 14.83 18.18 13.75L18.18 13.75L18.18 13.75Q18.21 12.66 18.21 12.08L18.21 12.08L18.21 12.08Q18.21 10.49 18.20 9.71L18.20 9.71L18.20 9.71Q18.16 8.63 18.13 8.50L18.13 8.50L18.13 8.50Q18.11 8.42 18.08 8.35L18.08 8.35L18.08 8.35Q18.05 8.29 17.99 8.24L17.99 8.24L17.99 8.24Q17.93 8.19 17.89 8.16L17.89 8.16L17.89 8.16Q17.84 8.12 17.75 8.10L17.75 8.10L17.75 8.10Q17.66 8.07 17.61 8.06L17.61 8.06L17.61 8.06Q17.55 8.05 17.43 8.04L17.43 8.04L17.43 8.04Q17.31 8.03 17.26 8.02L17.26 8.02L17.26 8.02Q17.21 8.02 17.06 8.01L17.06 8.01L17.06 8.01Q16.92 8.00 16.87 8.00L16.87 8.00L16.87 7.68L17.04 7.57L19.61 7.33ZM23.78 7.33L23.97 7.50L23.85 13.86L23.85 13.86Q23.85 13.95 23.84 14.15L23.84 14.15L23.84 14.15Q23.84 14.35 23.84 14.46L23.84 14.46L23.84 14.46Q23.84 14.79 23.85 15.00L23.85 15.00L23.85 15.00Q23.86 15.22 23.89 15.42L23.89 15.42L23.89 15.42Q23.92 15.63 23.98 15.74L23.98 15.74L23.98 15.74Q24.04 15.86 24.13 15.93L24.13 15.93L24.13 15.93Q24.23 16.00 24.37 16.00L24.37 16.00L24.37 16.00Q24.83 16.00 25.41 15.37L25.41 15.37L25.57 15.37L25.80 15.59L25.80 15.59Q24.60 17.19 23.52 17.19L23.52 17.19L23.52 17.19Q23.32 17.19 23.16 17.15L23.16 17.15L23.16 17.15Q23.00 17.11 22.89 17.06L22.89 17.06L22.89 17.06Q22.77 17.00 22.68 16.90L22.68 16.90L22.68 16.90Q22.59 16.80 22.53 16.71L22.53 16.71L22.53 16.71Q22.47 16.63 22.43 16.47L22.43 16.47L22.43 16.47Q22.39 16.32 22.37 16.21L22.37 16.21L22.37 16.21Q22.35 16.11 22.34 15.93L22.34 15.93L22.34 15.93Q22.33 15.75 22.33 15.65L22.33 15.65L22.33 15.65Q22.33 15.54 22.33 15.35L22.33 15.35L22.33 15.35Q22.33 14.83 22.35 13.75L22.35 13.75L22.35 13.75Q22.38 12.66 22.38 12.08L22.38 12.08L22.38 12.08Q22.38 10.49 22.37 9.71L22.37 9.71L22.37 9.71Q22.33 8.63 22.30 8.50L22.30 8.50L22.30 8.50Q22.28 8.42 22.25 8.35L22.25 8.35L22.25 8.35Q22.22 8.29 22.16 8.24L22.16 8.24L22.16 8.24Q22.10 8.19 22.06 8.16L22.06 8.16L22.06 8.16Q22.01 8.12 21.92 8.10L21.92 8.10L21.92 8.10Q21.83 8.07 21.78 8.06L21.78 8.06L21.78 8.06Q21.72 8.05 21.60 8.04L21.60 8.04L21.60 8.04Q21.48 8.03 21.43 8.02L21.43 8.02L21.43 8.02Q21.38 8.02 21.23 8.01L21.23 8.01L21.23 8.01Q21.09 8.00 21.04 8.00L21.04 8.00L21.04 7.68L21.21 7.57L23.78 7.33ZM27.60 13.82L27.60 13.82L27.60 13.82Q27.60 14.13 27.64 14.48L27.64 14.48L27.64 14.48Q27.69 14.82 27.80 15.22L27.80 15.22L27.80 15.22Q27.92 15.63 28.10 15.94L28.10 15.94L28.10 15.94Q28.27 16.25 28.58 16.46L28.58 16.46L28.58 16.46Q28.90 16.67 29.29 16.67L29.29 16.67L29.29 16.67Q29.66 16.67 29.95 16.56L29.95 16.56L29.95 16.56Q30.24 16.45 30.44 16.29L30.44 16.29L30.44 16.29Q30.63 16.13 30.77 15.85L30.77 15.85L30.77 15.85Q30.91 15.57 30.98 15.31L30.98 15.31L30.98 15.31Q31.05 15.06 31.09 14.68L31.09 14.68L31.09 14.68Q31.13 14.29 31.14 14.02L31.14 14.02L31.14 14.02Q31.14 13.75 31.14 13.34L31.14 13.34L31.14 13.34Q31.14 12.86 31.06 12.44L31.06 12.44L31.06 12.44Q30.98 12.02 30.80 11.65L30.80 11.65L30.80 11.65Q30.61 11.28 30.27 11.06L30.27 11.06L30.27 11.06Q29.92 10.85 29.45 10.85L29.45 10.85L29.45 10.85Q29.03 10.85 28.69 11.04L28.69 11.04L28.69 11.04Q28.36 11.24 28.16 11.54L28.16 11.54L28.16 11.54Q27.97 11.84 27.83 12.25L27.83 12.25L27.83 12.25Q27.70 12.65 27.65 13.04L27.65 13.04L27.65 13.04Q27.60 13.42 27.60 13.82ZM25.80 13.83L25.80 13.83L25.80 13.83Q25.80 12.30 26.85 11.29L26.85 11.29L26.85 11.29Q27.90 10.29 29.53 10.29L29.53 10.29L29.53 10.29Q31.16 10.29 32.01 11.05L32.01 11.05L32.01 11.05Q32.95 11.91 32.95 13.25L32.95 13.25L32.95 13.25Q32.95 14.10 32.75 14.77L32.75 14.77L32.75 14.77Q32.55 15.45 32.21 15.91L32.21 15.91L32.21 15.91Q31.87 16.37 31.39 16.67L31.39 16.67L31.39 16.67Q30.91 16.97 30.35 17.11L30.35 17.11L30.35 17.11Q29.80 17.25 29.17 17.25L29.17 17.25L29.17 17.25Q27.55 17.25 26.80 16.57L26.80 16.57L26.80 16.57Q25.80 15.66 25.80 13.83ZM35.11 9.17L35.10 8.86L36.60 8.35L36.81 8.45L36.81 8.45Q36.81 8.45 36.78 8.83L36.78 8.83L36.78 8.83Q36.75 9.22 36.71 9.79L36.71 9.79L36.71 9.79Q36.67 10.36 36.64 10.75L36.64 10.75L36.74 10.86L38.49 10.86L38.59 11.00L38.45 11.36L38.28 11.49L36.74 11.49L36.63 11.60L36.63 13.83L36.63 13.83Q36.63 14.12 36.63 14.27L36.63 14.27L36.63 14.27Q36.63 14.42 36.64 14.67L36.64 14.67L36.64 14.67Q36.65 14.92 36.67 15.06L36.67 15.06L36.67 15.06Q36.69 15.19 36.72 15.38L36.72 15.38L36.72 15.38Q36.76 15.57 36.81 15.67L36.81 15.67L36.81 15.67Q36.87 15.77 36.95 15.88L36.95 15.88L36.95 15.88Q37.03 15.98 37.14 16.02L37.14 16.02L37.14 16.02Q37.26 16.06 37.40 16.06L37.40 16.06L37.40 16.06Q37.93 16.06 38.53 15.51L38.53 15.51L38.67 15.51L38.84 15.72L38.84 15.72Q37.67 17.25 36.53 17.25L36.53 17.25L36.53 17.25Q36.25 17.25 36.03 17.17L36.03 17.17L36.03 17.17Q35.81 17.09 35.67 16.97L35.67 16.97L35.67 16.97Q35.53 16.86 35.43 16.65L35.43 16.65L35.43 16.65Q35.33 16.44 35.27 16.27L35.27 16.27L35.27 16.27Q35.22 16.09 35.19 15.80L35.19 15.80L35.19 15.80Q35.16 15.51 35.16 15.32L35.16 15.32L35.16 15.32Q35.16 15.13 35.16 14.81L35.16 14.81L35.16 11.61L35.03 11.49L33.49 11.49L33.41 11.38L33.55 10.97L33.70 10.88L35.05 10.88L35.14 10.75L35.14 10.75Q35.14 10.42 35.13 9.96L35.13 9.96L35.13 9.96Q35.12 9.49 35.11 9.17L35.11 9.17ZM48.75 8.90L48.75 8.90L47.43 10.10L47.21 10.06L47.21 10.06Q47.08 9.58 46.88 9.19L46.88 9.19L46.88 9.19Q46.68 8.80 46.37 8.47L46.37 8.47L46.37 8.47Q46.07 8.13 45.62 7.95L45.62 7.95L45.62 7.95Q45.17 7.77 44.60 7.77L44.60 7.77L44.60 7.77Q44.03 7.77 43.55 7.96L43.55 7.96L43.55 7.96Q43.07 8.16 42.73 8.49L42.73 8.49L42.73 8.49Q42.40 8.83 42.16 9.26L42.16 9.26L42.16 9.26Q41.91 9.68 41.77 10.17L41.77 10.17L41.77 10.17Q41.63 10.66 41.57 11.13L41.57 11.13L41.57 11.13Q41.50 11.59 41.50 12.05L41.50 12.05L41.50 12.05Q41.50 12.67 41.62 13.27L41.62 13.27L41.62 13.27Q41.75 13.88 42.03 14.46L42.03 14.46L42.03 14.46Q42.31 15.05 42.72 15.50L42.72 15.50L42.72 15.50Q43.13 15.94 43.76 16.21L43.76 16.21L43.76 16.21Q44.39 16.49 45.15 16.49L45.15 16.49L45.15 16.49Q46.54 16.49 48.34 15.61L48.34 15.61L48.64 15.96L48.64 15.96Q46.66 17.34 44.58 17.34L44.58 17.34L44.58 17.34Q43.46 17.34 42.57 17.07L42.57 17.07L42.57 17.07Q41.69 16.80 41.11 16.34L41.11 16.34L41.11 16.34Q40.53 15.88 40.15 15.24L40.15 15.24L40.15 15.24Q39.76 14.61 39.60 13.92L39.60 13.92L39.60 13.92Q39.44 13.23 39.44 12.46L39.44 12.46L39.44 12.46Q39.44 9.98 40.91 8.65L40.91 8.65L40.91 8.65Q41.72 7.92 42.78 7.53L42.78 7.53L42.78 7.53Q43.84 7.14 44.99 7.14L44.99 7.14L44.99 7.14Q46.34 7.14 47.24 7.55L47.24 7.55L47.24 7.55Q48.15 7.96 48.75 8.90ZM50.91 11.77L50.91 11.77L50.91 11.77Q50.91 15.83 51.02 16.74L51.02 16.74L49.55 17.19L49.37 17.04L49.37 17.04Q49.44 15.55 49.44 12.54L49.44 12.54L49.44 12.54Q49.44 8.91 49.37 8.63L49.37 8.63L49.37 8.63Q49.28 8.33 49.06 8.24L49.06 8.24L49.06 8.24Q48.84 8.16 48.10 8.11L48.10 8.11L48.10 7.74L48.28 7.63L50.88 7.35L50.91 7.49L50.91 11.03L51.03 11.13L51.03 11.13Q51.82 10.68 52.48 10.40L52.48 10.40L52.48 10.40Q53.15 10.13 53.76 10.13L53.76 10.13L53.76 10.13Q54.15 10.13 54.44 10.26L54.44 10.26L54.44 10.26Q54.72 10.40 54.88 10.60L54.88 10.60L54.88 10.60Q55.03 10.79 55.12 11.09L55.12 11.09L55.12 11.09Q55.21 11.39 55.24 11.65L55.24 11.65L55.24 11.65Q55.26 11.90 55.26 12.22L55.26 12.22L55.26 12.22Q55.26 12.39 55.20 13.17L55.20 13.17L55.20 13.17Q55.15 13.95 55.15 14.46L55.15 14.46L55.15 14.46Q55.15 15.16 55.29 15.51L55.29 15.51L55.29 15.51Q55.43 15.86 55.79 15.86L55.79 15.86L55.79 15.86Q55.98 15.86 56.16 15.78L56.16 15.78L56.16 15.78Q56.35 15.70 56.46 15.61L56.46 15.61L56.46 15.61Q56.57 15.52 56.75 15.37L56.75 15.37L56.96 15.52L56.98 15.69L56.98 15.69Q56.74 15.98 56.63 16.10L56.63 16.10L56.63 16.10Q56.53 16.21 56.26 16.47L56.26 16.47L56.26 16.47Q56 16.73 55.83 16.86L55.83 16.86L55.83 16.86Q55.65 16.98 55.41 17.09L55.41 17.09L55.41 17.09Q55.16 17.20 54.94 17.20L54.94 17.20L54.94 17.20Q54.22 17.20 53.94 16.67L53.94 16.67L53.94 16.67Q53.66 16.15 53.66 14.92L53.66 14.92L53.66 14.92Q53.66 14.48 53.70 13.76L53.70 13.76L53.70 13.76Q53.74 13.04 53.74 12.75L53.74 12.75L53.74 12.75Q53.74 11.83 53.46 11.46L53.46 11.46L53.46 11.46Q53.18 11.09 52.55 11.09L52.55 11.09L52.55 11.09Q52.19 11.09 51.74 11.29L51.74 11.29L51.74 11.29Q51.28 11.49 50.91 11.77ZM62.73 10.72L63.57 10.19L63.77 10.32L63.77 10.32Q63.55 12.65 63.55 14.14L63.55 14.14L63.55 14.14Q63.55 14.72 63.55 14.98L63.55 14.98L63.55 14.98Q63.56 15.24 63.60 15.55L63.60 15.55L63.60 15.55Q63.64 15.85 63.74 15.96L63.74 15.96L63.74 15.96Q63.84 16.06 64.01 16.06L64.01 16.06L64.01 16.06Q64.34 16.06 64.99 15.48L64.99 15.48L65.26 15.77L65.26 15.77Q65.01 16.06 64.78 16.29L64.78 16.29L64.78 16.29Q64.56 16.52 64.26 16.76L64.26 16.76L64.26 16.76Q63.96 17.00 63.62 17.13L63.62 17.13L63.62 17.13Q63.28 17.26 62.95 17.26L62.95 17.26L62.95 17.26Q62.20 17.26 62.08 16.33L62.08 16.33L61.90 16.26L61.90 16.26Q60.53 17.30 59.29 17.30L59.29 17.30L59.29 17.30Q58.75 17.30 58.35 17.02L58.35 17.02L58.35 17.02Q57.95 16.74 57.73 16.29L57.73 16.29L57.73 16.29Q57.51 15.84 57.41 15.36L57.41 15.36L57.41 15.36Q57.31 14.89 57.31 14.42L57.31 14.42L57.31 14.42Q57.31 12.29 58.16 11.20L58.16 11.20L58.16 11.20Q59.02 10.12 60.69 10.12L60.69 10.12L60.69 10.12Q61.75 10.12 62.73 10.72L62.73 10.72ZM62.10 12.46L62.10 12.46L62.10 12.46Q62.10 10.65 60.82 10.65L60.82 10.65L60.82 10.65Q60.43 10.65 60.12 10.80L60.12 10.80L60.12 10.80Q59.80 10.94 59.60 11.20L59.60 11.20L59.60 11.20Q59.40 11.46 59.25 11.78L59.25 11.78L59.25 11.78Q59.10 12.09 59.03 12.47L59.03 12.47L59.03 12.47Q58.95 12.85 58.92 13.19L58.92 13.19L58.92 13.19Q58.88 13.52 58.88 13.87L58.88 13.87L58.88 13.87Q58.88 14.27 58.95 14.65L58.95 14.65L58.95 14.65Q59.02 15.03 59.18 15.39L59.18 15.39L59.18 15.39Q59.33 15.76 59.63 15.99L59.63 15.99L59.63 15.99Q59.94 16.21 60.35 16.21L60.35 16.21L60.35 16.21Q61.18 16.21 62.00 15.45L62.00 15.45L62.00 15.45Q62.10 14.63 62.10 12.46ZM66.04 9.05L66.04 9.05L66.04 9.05Q65.76 8.78 65.76 8.39L65.76 8.39L65.76 8.39Q65.76 8.01 66.04 7.74L66.04 7.74L66.04 7.74Q66.31 7.47 66.68 7.47L66.68 7.47L66.68 7.47Q67.06 7.47 67.33 7.74L67.33 7.74L67.33 7.74Q67.61 8.01 67.61 8.39L67.61 8.39L67.61 8.39Q67.61 8.78 67.33 9.05L67.33 9.05L67.33 9.05Q67.06 9.32 66.68 9.32L66.68 9.32L66.68 9.32Q66.31 9.32 66.04 9.05ZM69.00 15.42L69.00 15.42L69.23 15.65L69.23 15.80L69.23 15.80Q68.04 17.27 67.05 17.27L67.05 17.27L67.05 17.27Q66.49 17.27 66.21 16.88L66.21 16.88L66.21 16.88Q66.11 16.75 66.06 16.59L66.06 16.59L66.06 16.59Q66.00 16.43 65.97 16.28L65.97 16.28L65.97 16.28Q65.94 16.13 65.93 15.81L65.93 15.81L65.93 15.81Q65.93 15.50 65.93 15.26L65.93 15.26L65.93 15.26Q65.93 15.01 65.93 14.48L65.93 14.48L65.93 14.48Q65.94 13.95 65.94 13.54L65.94 13.54L65.94 11.89L65.94 11.89Q65.88 11.21 65.45 11.21L65.45 11.21L65.45 11.21Q65.11 11.21 64.48 11.66L64.48 11.66L64.26 11.35L64.26 11.35Q64.67 11.01 64.98 10.80L64.98 10.80L64.98 10.80Q65.28 10.59 65.74 10.39L65.74 10.39L65.74 10.39Q66.19 10.19 66.57 10.19L66.57 10.19L66.57 10.19Q67.08 10.19 67.27 10.51L67.27 10.51L67.27 10.51Q67.36 10.66 67.40 10.88L67.40 10.88L67.40 10.88Q67.44 11.10 67.44 11.68L67.44 11.68L67.44 11.68Q67.44 11.96 67.42 12.53L67.42 12.53L67.42 12.53Q67.40 13.10 67.40 13.38L67.40 13.38L67.40 13.38Q67.40 13.60 67.39 13.91L67.39 13.91L67.39 13.91Q67.39 14.23 67.39 14.41L67.39 14.41L67.39 14.41Q67.38 14.59 67.39 14.83L67.39 14.83L67.39 14.83Q67.39 15.07 67.40 15.21L67.40 15.21L67.40 15.21Q67.42 15.35 67.44 15.52L67.44 15.52L67.44 15.52Q67.46 15.68 67.51 15.77L67.51 15.77L67.51 15.77Q67.55 15.85 67.62 15.93L67.62 15.93L67.62 15.93Q67.69 16.02 67.78 16.05L67.78 16.05L67.78 16.05Q67.87 16.08 68.00 16.08L68.00 16.08L68.00 16.08Q68.15 16.08 68.36 15.96L68.36 15.96L68.36 15.96Q68.56 15.84 68.68 15.73L68.68 15.73L68.68 15.73Q68.80 15.62 69.00 15.42ZM71.40 11.80L71.40 11.80L71.40 11.80Q71.40 13.29 71.44 14.85L71.44 14.85L71.44 14.85Q71.47 16.41 71.54 16.70L71.54 16.70L70 17.14L69.83 17.05L69.83 17.05Q69.93 13.62 69.93 12.95L69.93 12.95L69.93 12.95Q69.93 12.91 69.93 12.83L69.93 12.83L69.93 12.83Q69.93 12.54 69.93 12.40L69.93 12.40L69.93 12.40Q69.92 12.26 69.91 12.02L69.91 12.02L69.91 12.02Q69.90 11.79 69.86 11.67L69.86 11.67L69.86 11.67Q69.83 11.55 69.77 11.42L69.77 11.42L69.77 11.42Q69.72 11.29 69.62 11.23L69.62 11.23L69.62 11.23Q69.53 11.17 69.40 11.17L69.40 11.17L69.40 11.17Q69.32 11.17 69.21 11.20L69.21 11.20L69.21 11.20Q69.10 11.24 68.98 11.30L68.98 11.30L68.98 11.30Q68.86 11.37 68.77 11.42L68.77 11.42L68.77 11.42Q68.68 11.46 68.56 11.54L68.56 11.54L68.56 11.54Q68.44 11.61 68.42 11.63L68.42 11.63L68.17 11.29L68.17 11.29Q68.47 11.05 68.70 10.89L68.70 10.89L68.70 10.89Q68.93 10.72 69.24 10.52L69.24 10.52L69.24 10.52Q69.55 10.33 69.85 10.23L69.85 10.23L69.85 10.23Q70.16 10.13 70.43 10.13L70.43 10.13L70.43 10.13Q70.92 10.13 71.12 10.39L71.12 10.39L71.12 10.39Q71.33 10.66 71.36 11.09L71.36 11.09L71.52 11.16L71.52 11.16Q73.11 10.17 74.31 10.17L74.31 10.17L74.31 10.17Q74.73 10.17 75.01 10.32L75.01 10.32L75.01 10.32Q75.29 10.47 75.43 10.63L75.43 10.63L75.43 10.63Q75.58 10.80 75.65 11.24L75.65 11.24L75.65 11.24Q75.71 11.68 75.73 11.94L75.73 11.94L75.73 11.94Q75.74 12.20 75.73 12.86L75.73 12.86L75.73 12.86Q75.73 13.13 75.73 13.27L75.73 13.27L75.73 13.27Q75.73 13.48 75.70 13.98L75.70 13.98L75.70 13.98Q75.68 14.49 75.68 14.71L75.68 14.71L75.68 14.71Q75.68 15.09 75.71 15.30L75.71 15.30L75.71 15.30Q75.75 15.52 75.79 15.58L75.79 15.58L75.79 15.58Q75.82 15.65 75.91 15.72L75.91 15.72L75.91 15.72Q76.05 15.86 76.30 15.86L76.30 15.86L76.30 15.86Q76.73 15.86 77.24 15.50L77.24 15.50L77.40 15.50L77.56 15.73L77.56 15.73Q76.83 16.46 76.51 16.71L76.51 16.71L76.51 16.71Q75.84 17.23 75.33 17.23L75.33 17.23L75.33 17.23Q74.87 17.23 74.58 16.95L74.58 16.95L74.58 16.95Q74.49 16.87 74.43 16.77L74.43 16.77L74.43 16.77Q74.37 16.67 74.33 16.49L74.33 16.49L74.33 16.49Q74.30 16.32 74.28 16.17L74.28 16.17L74.28 16.17Q74.26 16.02 74.25 15.72L74.25 15.72L74.25 15.72Q74.25 15.42 74.25 15.20L74.25 15.20L74.25 15.20Q74.25 14.98 74.26 14.52L74.26 14.52L74.26 14.52Q74.26 14.06 74.26 13.73L74.26 13.73L74.26 13.73Q74.26 13.16 74.25 12.80L74.25 12.80L74.25 12.80Q74.23 12.44 74.14 11.99L74.14 11.99L74.14 11.99Q74.05 11.54 73.88 11.38L73.88 11.38L73.88 11.38Q73.64 11.16 73.10 11.16L73.10 11.16L73.10 11.16Q72.59 11.16 71.40 11.80Z"></path></g><!----><g data-v-423bf9ae="" id="ec268329-561f-41c6-8375-931e9ccb3487" transform="matrix(1.0868111504448785,0,0,1.0868111504448785,-13.255261890115804,-0.23894260335429607)" stroke="none" fill="white"><g clip-rule="evenodd"><path d="M12.983 10.59l17.018 88.223-5.872-59.049 29.021-1.892-.054-9.883L64.549 1 53.622 18.977z"></path><path d="M59.389 54.548l5.16-53.541-8.74 39.716-19.612 1.045 1.57 20.462-7.766 36.583 12.057-39.899z"></path><path d="M62.8 67.182l.549-10.453-15.979 3.755-.032 11.797-17.337 26.532 21.68-27.616zM65.711 62.394l14.841-4.731 1.509-12.532-15.899 2.095zM72.07 44.502l10.988-1.417 1.581-10.278-8.079-.373L64.549 1l8.43 30.967z"></path><path d="M87.413 31.294l1.256-9.506-9.544-2.694L64.549 1l14.483 22.437-.422 7z"></path></g></g><!----><g data-v-423bf9ae="" id="33879fe1-13f6-4525-a53b-5da149fba79e" fill="white" transform="matrix(1.146139794288622,0,0,1.146139794288622,101.52285353485962,53.48992441879207)"><path d="M0.64 15.68L0.64 5.88L2.88 5.88L4.20 15.18L4.37 15.18L5.68 5.88L7.92 5.88L7.92 15.68L6.83 15.68L6.83 6.38L6.66 6.38L5.35 15.68L3.22 15.68L1.90 6.38L1.74 6.38L1.74 15.68L0.64 15.68ZM22.67 15.68L21.95 13.24L17.75 13.24L17.04 15.68L15.78 15.68L18.75 5.88L20.96 5.88L23.93 15.68L22.67 15.68ZM19.94 6.38L19.77 6.38L18.07 12.15L21.63 12.15L19.94 6.38ZM33.56 11.31L33.56 15.68L32.38 15.68L32.38 5.88L33.56 5.88L33.56 10.22L33.88 10.22L37.65 5.88L39.10 5.88L39.10 5.96L35.04 10.70L35.04 10.86L39.27 15.60L39.27 15.68L37.79 15.68L33.88 11.31L33.56 11.31ZM48.02 15.68L48.02 5.88L53.96 5.88L53.96 6.97L49.20 6.97L49.20 10.22L53.87 10.22L53.87 11.31L49.20 11.31L49.20 14.59L54.04 14.59L54.04 15.68L48.02 15.68ZM79.16 15.68L79.16 5.88L85.09 5.88L85.09 6.97L80.33 6.97L80.33 10.22L85.01 10.22L85.01 11.31L80.33 11.31L80.33 14.59L85.18 14.59L85.18 15.68L79.16 15.68ZM96.56 15.68L93.79 5.88L95.05 5.88L97.61 15.18L97.78 15.18L100.34 5.88L101.60 5.88L98.83 15.68L96.56 15.68ZM110.29 15.68L110.29 5.88L116.23 5.88L116.23 6.97L111.47 6.97L111.47 10.22L116.14 10.22L116.14 11.31L111.47 11.31L111.47 14.59L116.31 14.59L116.31 15.68L110.29 15.68ZM131.89 12.15L131.89 15.68L130.72 15.68L130.72 12.40L130.72 12.40Q130.72 12.04 130.55 11.84L130.55 11.84L130.55 11.84Q130.38 11.65 129.96 11.65L129.96 11.65L126.91 11.65L126.91 15.68L125.73 15.68L125.73 5.88L129.23 5.88L129.23 5.88Q129.99 5.88 130.55 6.10L130.55 6.10L130.55 6.10Q131.11 6.31 131.48 6.68L131.48 6.68L131.48 6.68Q131.85 7.04 132.04 7.53L132.04 7.53L132.04 7.53Q132.23 8.01 132.23 8.54L132.23 8.54L132.23 8.96L132.23 8.96Q132.23 9.51 131.93 10.05L131.93 10.05L131.93 10.05Q131.63 10.60 131.00 10.89L131.00 10.89L131.00 11.06L131.00 11.06Q131.42 11.13 131.66 11.40L131.66 11.40L131.66 11.40Q131.89 11.66 131.89 12.15L131.89 12.15ZM126.91 6.97L126.91 10.56L129.09 10.56L129.09 10.56Q130.09 10.56 130.57 10.13L130.57 10.13L130.57 10.13Q131.05 9.70 131.05 8.88L131.05 8.88L131.05 8.62L131.05 8.62Q131.05 7.88 130.57 7.43L130.57 7.43L130.57 7.43Q130.09 6.97 129.09 6.97L129.09 6.97L126.91 6.97ZM143.81 15.68L143.81 12.24L143.56 12.24L140.49 5.88L141.81 5.88L144.31 11.23L144.48 11.23L146.99 5.88L148.30 5.88L145.24 12.24L144.98 12.24L144.98 15.68L143.81 15.68ZM174.40 15.68L171.63 5.88L172.89 5.88L175.45 15.18L175.62 15.18L178.18 5.88L179.44 5.88L176.67 15.68L174.40 15.68ZM187.66 11.87L187.66 9.69L187.66 9.69Q187.66 7.78 188.57 6.73L188.57 6.73L188.57 6.73Q189.48 5.68 191.10 5.68L191.10 5.68L191.10 5.68Q192.72 5.68 193.63 6.73L193.63 6.73L193.63 6.73Q194.54 7.78 194.54 9.69L194.54 9.69L194.54 11.87L194.54 11.87Q194.54 13.83 193.63 14.85L193.63 14.85L193.63 14.85Q192.72 15.88 191.10 15.88L191.10 15.88L191.10 15.88Q189.48 15.88 188.57 14.85L188.57 14.85L188.57 14.85Q187.66 13.83 187.66 11.87L187.66 11.87ZM191.10 14.78L191.10 14.78L191.10 14.78Q192.23 14.78 192.80 14.01L192.80 14.01L192.80 14.01Q193.37 13.23 193.37 11.79L193.37 11.79L193.37 9.77L193.37 9.77Q193.37 8.43 192.80 7.60L192.80 7.60L192.80 7.60Q192.23 6.78 191.10 6.78L191.10 6.78L191.10 6.78Q189.97 6.78 189.40 7.60L189.40 7.60L189.40 7.60Q188.83 8.43 188.83 9.77L188.83 9.77L188.83 11.79L188.83 11.79Q188.83 13.23 189.40 14.01L189.40 14.01L189.40 14.01Q189.97 14.78 191.10 14.78ZM203.22 6.97L203.22 5.88L210.11 5.88L210.11 6.97L207.26 6.97L207.26 15.68L206.08 15.68L206.08 6.97L203.22 6.97ZM219.27 15.68L219.27 5.88L225.20 5.88L225.20 6.97L220.44 6.97L220.44 10.22L225.12 10.22L225.12 11.31L220.44 11.31L220.44 14.59L225.29 14.59L225.29 15.68L219.27 15.68ZM253.43 14.78L253.43 14.78L253.43 14.78Q254.03 14.78 254.46 14.58L254.46 14.58L254.46 14.58Q254.88 14.38 255.16 14.04L255.16 14.04L255.16 14.04Q255.43 13.69 255.56 13.25L255.56 13.25L255.56 13.25Q255.70 12.81 255.70 12.32L255.70 12.32L255.70 12.15L256.87 12.15L256.87 12.32L256.87 12.32Q256.87 13.06 256.65 13.71L256.65 13.71L256.65 13.71Q256.42 14.36 255.99 14.85L255.99 14.85L255.99 14.85Q255.56 15.33 254.91 15.60L254.91 15.60L254.91 15.60Q254.27 15.88 253.43 15.88L253.43 15.88L253.43 15.88Q251.80 15.88 250.89 14.85L250.89 14.85L250.89 14.85Q249.98 13.83 249.98 11.87L249.98 11.87L249.98 9.69L249.98 9.69Q249.98 7.78 250.89 6.73L250.89 6.73L250.89 6.73Q251.80 5.68 253.43 5.68L253.43 5.68L253.43 5.68Q254.27 5.68 254.91 5.96L254.91 5.96L254.91 5.96Q255.56 6.23 255.99 6.71L255.99 6.71L255.99 6.71Q256.42 7.20 256.65 7.85L256.65 7.85L256.65 7.85Q256.87 8.50 256.87 9.24L256.87 9.24L256.87 9.41L255.70 9.41L255.70 9.24L255.70 9.24Q255.68 8.76 255.55 8.32L255.55 8.32L255.55 8.32Q255.42 7.87 255.14 7.53L255.14 7.53L255.14 7.53Q254.87 7.18 254.45 6.98L254.45 6.98L254.45 6.98Q254.03 6.78 253.43 6.78L253.43 6.78L253.43 6.78Q252.29 6.78 251.73 7.60L251.73 7.60L251.73 7.60Q251.16 8.43 251.16 9.77L251.16 9.77L251.16 11.79L251.16 11.79Q251.16 13.23 251.73 14.01L251.73 14.01L251.73 14.01Q252.29 14.78 253.43 14.78ZM265.50 11.87L265.50 9.69L265.50 9.69Q265.50 7.78 266.41 6.73L266.41 6.73L266.41 6.73Q267.32 5.68 268.94 5.68L268.94 5.68L268.94 5.68Q270.56 5.68 271.47 6.73L271.47 6.73L271.47 6.73Q272.38 7.78 272.38 9.69L272.38 9.69L272.38 11.87L272.38 11.87Q272.38 13.83 271.47 14.85L271.47 14.85L271.47 14.85Q270.56 15.88 268.94 15.88L268.94 15.88L268.94 15.88Q267.32 15.88 266.41 14.85L266.41 14.85L266.41 14.85Q265.50 13.83 265.50 11.87L265.50 11.87ZM268.94 14.78L268.94 14.78L268.94 14.78Q270.07 14.78 270.64 14.01L270.64 14.01L270.64 14.01Q271.21 13.23 271.21 11.79L271.21 11.79L271.21 9.77L271.21 9.77Q271.21 8.43 270.64 7.60L270.64 7.60L270.64 7.60Q270.07 6.78 268.94 6.78L268.94 6.78L268.94 6.78Q267.81 6.78 267.24 7.60L267.24 7.60L267.24 7.60Q266.67 8.43 266.67 9.77L266.67 9.77L266.67 11.79L266.67 11.79Q266.67 13.23 267.24 14.01L267.24 14.01L267.24 14.01Q267.81 14.78 268.94 14.78ZM281.15 5.88L282.32 5.88L282.32 12.38L282.32 12.38Q282.32 13.57 282.88 14.17L282.88 14.17L282.88 14.17Q283.43 14.78 284.51 14.78L284.51 14.78L284.51 14.78Q285.59 14.78 286.14 14.17L286.14 14.17L286.14 14.17Q286.69 13.57 286.69 12.38L286.69 12.38L286.69 5.88L287.87 5.88L287.87 12.38L287.87 12.38Q287.87 14.08 286.97 14.98L286.97 14.98L286.97 14.98Q286.08 15.88 284.51 15.88L284.51 15.88L284.51 15.88Q282.94 15.88 282.04 14.98L282.04 14.98L282.04 14.98Q281.15 14.08 281.15 12.38L281.15 12.38L281.15 5.88ZM299.17 5.88L301.99 15.18L302.16 15.18L302.16 5.88L303.34 5.88L303.34 15.68L300.99 15.68L298.16 6.38L297.99 6.38L297.99 15.68L296.81 15.68L296.81 5.88L299.17 5.88ZM312.20 6.97L312.20 5.88L319.09 5.88L319.09 6.97L316.23 6.97L316.23 15.68L315.06 15.68L315.06 6.97L312.20 6.97Z"></path></g></svg>